<?xml version="1.0" standalone="no"?>
<!DOCTYPE svg PUBLIC "-//W3C//DTD SVG 1.1//EN" "http://www.w3.org/Graphics/SVG/1.1/DTD/svg11.dtd" >
<!--
2013-9-30: Created.
-->
<svg>
<metadata>
Created by iconfont
</metadata>
<defs>

<font id="iconfont" horiz-adv-x="1024" >
  <font-face
    font-family="iconfont"
    font-weight="500"
    font-stretch="normal"
    units-per-em="1024"
    ascent="896"
    descent="-128"
  />
    <missing-glyph />
    
    <glyph glyph-name="guanbi3" unicode="&#58895;" d="M512-39.68c-233.728 0-423.68 189.952-423.68 423.68S278.272 807.68 512 807.68 935.68 617.728 935.68 384 745.728-39.68 512-39.68z m0 791.04c-202.496 0-367.36-164.864-367.36-367.36S309.504 16.64 512 16.64 879.36 181.504 879.36 384 714.496 751.36 512 751.36zM670.72 165.12c-8.192 0-16.128 3.328-21.76 10.24l-317.44 381.44c-9.984 12.032-8.448 29.696 3.584 39.68 12.032 9.984 29.696 8.448 39.68-3.584l317.44-381.44c9.984-12.032 8.448-29.696-3.584-39.68-5.12-4.608-11.52-6.656-17.92-6.656zM353.28 165.12c-6.4 0-12.8 2.048-17.92 6.4-12.032 9.984-13.568 27.648-3.584 39.68l317.44 381.44c9.984 12.032 27.648 13.568 39.68 3.584 12.032-9.984 13.568-27.648 3.584-39.68l-317.44-381.44c-5.632-6.656-13.824-9.984-21.76-9.984z"  horiz-adv-x="1024" />

    
    <glyph glyph-name="guanbi2" unicode="&#58892;" d="M874.020877 21.980875c-199.931835-199.974501-524.106414-199.974501-724.038249 0-199.974501 199.931835-199.974501 524.106414 0 724.03825 199.931835 199.974501 524.106414 199.974501 724.038249 0 199.974501-199.931835 199.974501-524.106414 0-724.03825zM813.691467 685.689715C647.081605 852.299577 376.9219 852.299577 210.312037 685.689715 43.702175 519.079853 43.702175 248.920147 210.312037 82.310285c166.609862-166.609862 436.769567-166.609862 603.37943 0 166.609862 166.609862 166.609862 436.769567 0 603.37943zM726.951941 176.601654l-7.551843-7.551843a37.28989 37.28989 0 0 0-52.777567 0l-154.620779 154.620779-150.86619-150.86619a42.665778 42.665778 0 0 0-60.32941 60.372075l150.86619 150.823525-154.620778 154.620779a37.28989 37.28989 0 0 0 0 52.777567l7.551842 7.551843a37.28989 37.28989 0 0 0 52.777567 0l154.620779-154.620779 150.866191 150.86619a42.665778 42.665778 0 0 0 60.329409-60.32941l-150.86619-150.86619 154.620779-154.620779a37.28989 37.28989 0 0 0 0-52.777567z"  horiz-adv-x="1025" />

    
    <glyph glyph-name="bumenguanli" unicode="&#58983;" d="M938.879316 192.031987l-63.999084 0 0 159.99522c0 17.666595-14.330457 31.992073-32.002032 31.992073L554.895768 384.01928l0 191.992272 63.989125 0c35.203729 0 64.004063 28.800335 64.004063 63.999084L682.888956 832.003904c0 35.198749-28.800335 63.996096-64.004063 63.996096L426.894613 896c-35.200741 0-63.996096-28.797347-63.996096-63.996096l0-191.994264c0-35.198749 28.795355-63.999084 63.996096-63.999084l63.996096 0 0-191.992272L202.903297 384.018284c-17.671575 0-32.002032-14.325478-32.002032-31.992073l0-159.99522-63.994104 0c-35.200741 0-63.999084-28.800335-63.999084-63.999084l0-191.992272c0-35.203729 28.797347-64.004063 63.999084-64.004063l191.992272 0c35.198749 0 63.999084 28.800335 63.999084 64.004063l0 191.992272c0 35.198749-28.800335 63.999084-63.999084 63.999084l-63.999084 0L234.900349 320.02418l575.97582 0 0-127.993188-63.989125 0c-35.198749 0-63.999084-28.800335-63.999084-63.999084l0-191.992272c0-35.203729 28.800335-64.004063 63.999084-64.004063l191.991276 0c35.198749 0 63.999084 28.800335 63.999084 64.004063l0 191.992272C1002.877404 163.231652 974.07707 192.031987 938.879316 192.031987zM426.894613 832.003904l191.989285 0 0-191.994264L426.894613 640.00964 426.894613 832.003904zM298.899433-63.959369l-191.992272 0 0 191.992272 191.992272 0L298.899433-63.959369zM938.879316-63.959369 746.887044-63.959369l0 191.992272 191.991276 0L938.878321-63.959369z"  horiz-adv-x="1024" />

    
    <glyph glyph-name="ml" unicode="&#58962;" d="M820.070964 229.11834999999996m-88.484385 0a88.484385 88.484385 0 1 1 176.96877 0 88.484385 88.484385 0 1 1-176.96877 0ZM546.232035-127.42167099999995h-462.663449A79.52028 79.52028 0 0 0 0-51.371365999999966V819.881742A79.52028 79.52028 0 0 0 82.701092 895.932046H925.326899a79.52028 79.52028 0 0 0 82.701091-76.050304v-543.051224h-57.832931V819.881742c0 9.831598-11.277422 18.217373-24.86816 18.217373H82.701092c-13.590739 0-24.86816-8.385775-24.868161-18.217373v-871.253108c0-9.831598 11.277422-18.217373 24.868161-18.217374h462.663449zM230.175066 680.215213h533.797955v-53.495461H230.175066zM235.090865 533.319568h408.878824v-53.495461H235.090865zM238.850006 386.713087h303.333724v-53.495461H238.850006zM722.91164 115.18747599999995l98.315983-242.898311h-188.246191v181.017074a59.857084 59.857084 0 0 0 57.832931 61.592072zM1007.160496 53.306239000000005v-181.017074H821.227623l108.72591 242.898311h19.952361a59.857084 59.857084 0 0 0 57.254602-61.881237zM821.516787 128.48905000000002L867.493968 82.51186900000005l-46.266345-210.511869-48.868827 212.246857 49.157991 44.242193z"  horiz-adv-x="1064" />

    
    <glyph glyph-name="guanbi" unicode="&#59155;" d="M940.7 55.3L602.2 393.7l319.1 319.1c25.8 25.8 25.8 64.5 0 90.2s-64.5 25.8-90.2 0L512 483.9 192.9 803c-25.8 25.8-64.5 25.8-90.2 0s-25.8-64.5 0-90.2L423.1 395 83.3 55.3c-25.8-25.8-25.8-64.5 0-90.2 12.9-12.9 25.8-19.3 45.1-19.3s32.2 6.4 45.1 19.3l340.2 340.2L856.9-35c12.9-12.9 25.8-19.3 45.1-19.3s32.2 6.4 38.7 19.3c25.7 25.8 25.7 64.5 0 90.3z"  horiz-adv-x="1024" />

    
    <glyph glyph-name="shousuo" unicode="&#58890;" d="M106.24 360.107L271.787 244.48c20.053-14.08 45.653 0 45.653 22.613V500.907c0 5.973-2.133 11.946-5.547 17.066-9.386 12.374-27.306 14.934-40.106 5.547L106.24 407.893c-14.08-11.093-14.08-33.706 0-47.786z m23.04 322.56h785.067c18.773 0 34.133 15.36 34.133 34.133s-15.36 34.133-34.133 34.133H129.28c-18.773 0-34.133-15.36-34.133-34.133s15.36-34.133 34.133-34.133z m0-665.6h785.067c18.773 0 34.133 15.36 34.133 34.133s-15.36 34.133-34.133 34.133H129.28c-18.773 0-34.133-15.36-34.133-34.133s15.36-34.133 34.133-34.133zM419.413 460.8h494.934c18.773 0 34.133 15.36 34.133 34.133s-15.36 34.134-34.133 34.134H419.413c-18.773 0-34.133-15.36-34.133-34.134s15.36-34.133 34.133-34.133z m0-221.867h495.36c18.774 0 34.134 15.36 34.134 34.134s-15.36 34.133-34.134 34.133h-495.36c-18.773 0-34.133-15.36-34.133-34.133v-0.427c0-18.347 15.36-33.707 34.133-33.707z"  horiz-adv-x="1024" />

    
    <glyph glyph-name="zhankai" unicode="&#59347;" d="M853.333333 170.965333v-64H170.666667v64h682.666666z m-149.333333 309.333334l149.333333-106.666667-149.333333-106.666667v213.333334z m-85.333333-74.666667v-64H170.666667v64h448zM853.333333 640v-64H170.666667v64h682.666666z"  horiz-adv-x="1024" />

    
    <glyph glyph-name="block" unicode="&#59358;" d="M512 746.666667c200.533333 0 362.666667-162.133333 362.666667-362.666667s-162.133333-362.666667-362.666667-362.666667S149.333333 183.466667 149.333333 384 311.466667 746.666667 512 746.666667z m232.533333-174.933334L324.266667 151.466667c51.2-40.533333 117.333333-66.133333 187.733333-66.133334 164.266667 0 298.666667 134.4 298.666667 298.666667 0 70.4-25.6 136.533333-66.133334 187.733333zM512 682.666667c-164.266667 0-298.666667-134.4-298.666667-298.666667 0-70.4 25.6-136.533333 66.133334-187.733333l420.266666 420.266666C648.533333 657.066667 582.4 682.666667 512 682.666667z"  horiz-adv-x="1024" />

    
    <glyph glyph-name="guanbi1" unicode="&#58898;" d="M512-128C229.376-128 0 101.376 0 384S229.376 896 512 896s512-229.376 512-512-229.376-512-512-512z m0 975.36C257.024 847.36 48.64 638.976 48.64 384c0-254.976 207.872-463.36 463.36-463.36S975.36 128.512 975.36 384 766.976 847.36 512 847.36zM548.864 384l195.072 195.072c9.728 9.728 9.728 25.6 0 36.864l-1.536 1.536c-9.728 9.728-25.6 9.728-35.328 0L512 420.864 316.928 615.936c-9.728 9.728-25.6 9.728-35.328 0l-1.536-1.536c-9.728-9.728-9.728-25.6 0-36.864L475.136 384 280.064 188.928c-9.728-9.728-9.728-25.6 0-36.864l1.536-1.536c9.728-9.728 25.6-9.728 35.328 0L512 347.136l195.072-195.072c9.728-9.728 25.6-9.728 35.328 0l1.536 1.536c9.728 9.728 9.728 25.6 0 36.864L548.864 384z"  horiz-adv-x="1024" />

    
    <glyph glyph-name="indent" unicode="&#60422;" d="M408 454h480c4.4 0 8 3.6 8 8v56c0 4.4-3.6 8-8 8H408c-4.4 0-8-3.6-8-8v-56c0-4.4 3.6-8 8-8z m-8-204c0-4.4 3.6-8 8-8h480c4.4 0 8 3.6 8 8v56c0 4.4-3.6 8-8 8H408c-4.4 0-8-3.6-8-8v-56z m504 486H120c-4.4 0-8-3.6-8-8v-56c0-4.4 3.6-8 8-8h784c4.4 0 8 3.6 8 8v56c0 4.4-3.6 8-8 8z m0-632H120c-4.4 0-8-3.6-8-8v-56c0-4.4 3.6-8 8-8h784c4.4 0 8 3.6 8 8v56c0 4.4-3.6 8-8 8zM142.4 253.9L298.7 377c4.5 3.5 4.5 10.3 0 13.9L142.4 514.1c-5.8 4.6-14.4 0.5-14.4-6.9v-246.3c0-7.4 8.5-11.6 14.4-7z"  horiz-adv-x="1024" />

    
    <glyph glyph-name="yanzhengma" unicode="&#59018;" d="M514.389-109.609c-269.967 0-489.595 219.642-489.595 489.595s219.628 489.609 489.595 489.609 489.595-219.642 489.595-489.595-219.628-489.609-489.595-489.609zM514.389 828.635c-247.385 0-448.635-201.25-448.635-448.635s201.264-448.635 448.635-448.635 448.635 201.25 448.635 448.635-201.25 448.635-448.635 448.635zM245.993 274.432c41.014 8.138 86.112 18.036 135.264 29.71-0.355-14.145-0.177-26.692 0.532-37.655-40.318-8.493-82.93-18.924-127.836-31.294l-7.959 39.239zM324.499 535.934l-12.206-145.872h53.575l13.79 178.763h-120.409v36.073h160.727l-16.438-214.821h33.423c-2.471-74.615-4.779-135.973-6.895-184.061-1.065-53.754-24.399-80.623-70.014-80.623-19.101 0-41.547 0.532-67.365 1.598-1.775 13.079-4.068 27.047-6.895 41.902 25.463-3.181 48.087-4.779 67.898-4.779 24.753 0 37.834 15.033 39.253 45.084 2.116 38.898 3.891 87.163 5.311 144.807h-127.303l16.971 181.945h36.577zM633.747 634.593l-10.076-16.971c42.789-76.035 95.833-131.373 159.13-166.025-11.318-14.145-20.685-26.528-28.112-37.137-62.231 45.971-112.981 101.308-152.235 166.025-36.073-64.006-86.466-121.474-151.17-172.387-6.363 9.188-15.21 20.33-26.528 33.423 70.369 48.797 124.3 113.158 161.778 193.086h47.213zM441.194 177.889h191.488c25.463 62.942 48.087 128.723 67.898 197.318l40.318-12.725c-20.862-63.297-42.967-124.832-66.301-184.593h93.361v-36.605h-326.765v36.605zM468.241 347.628l37.137 11.674c17.326-50.217 31.826-94.945 43.5-134.198l-39.253-13.258c-11.674 45.261-25.463 90.522-41.383 135.782zM495.302 439.392h218.535v-36.605h-218.535v36.605zM559.473 371.507l37.655 10.076c14.854-53.043 27.047-99.369 36.605-138.977l-38.721-11.141c-10.254 48.797-22.091 95.477-35.539 140.043z"  horiz-adv-x="1024" />

    
    <glyph glyph-name="yanzhengma1" unicode="&#58925;" d="M89.509888 623.22688c-19.697664-113.08032 55.683072-220.997632 168.749056-241.565696 47.112192-7.702528 93.36832 0.854016 132.763648 21.424128l343.488512-370.049024c14.548992-15.405056 36.829184-16.257024 53.106688-4.278272l0 0 0.851968 0.856064 0.858112 0.854016c0.856064 0.858112 1.71008 1.712128 2.566144 2.568192l150.76352 149.907456c10.27072 9.412608 4.28032 31.694848-11.995136 47.95392-17.127424 17.143808-38.5536 23.134208-48.822272 13.717504l-123.348992-122.49088-104.493056 113.934336 95.064064 90.771456c9.428992 10.297344 6.006784 30.836736-9.414656 46.270464-15.415296 16.26112-35.969024 20.568064-46.252032 11.126784l-93.372416-89.946112-148.180992 156.755968c23.977984 27.414528 41.109504 61.67552 47.968256 100.214784 19.697664 113.08032-56.539136 220.995584-169.60512 240.707584C217.137152 811.6736 109.221888 736.27648 89.509888 623.22688L89.509888 623.22688zM318.222336 723.439616c75.3664-12.865536 125.902848-84.809728 113.065984-160.176128-6.004736-31.6928-22.278144-59.107328-43.687936-78.819328-4.278272-1.712128-8.572928-4.278272-11.995136-7.702528-1.71008-1.712128-3.422208-3.424256-5.132288-5.9904-29.128704-18.00192-64.243712-26.558464-100.214784-20.568064-75.382784 13.7216-125.917184 85.665792-112.211968 161.032192C170.881024 686.61248 242.839552 737.132544 318.222336 723.439616L318.222336 723.439616z"  horiz-adv-x="1024" />

    
    <glyph glyph-name="yanzhengma2" unicode="&#58941;" d="M225.5104 643.27168v110.5408a30.30016 30.30016 0 0 0 30.21312 30.21312h561.98656a30.30528 30.30528 0 0 0 30.21824-30.21312v-110.55104h56.3712V780.34432c0 33.23392-27.20256 60.43136-60.44672 60.43136H229.5808c-33.24416 0-60.43136-27.19744-60.43136-60.43136v-137.07776h56.36096v0.00512z m622.41792-484.21376v-120.38144a30.3104 30.3104 0 0 0-30.21824-30.208H255.72352a30.30528 30.30528 0 0 0-30.21312 30.208v120.38144H169.14944v-146.91328c0-33.23392 27.19744-60.43648 60.43136-60.43648h614.272c33.23904 0 60.44672 27.19744 60.44672 60.43648v146.91328h-56.3712zM300.47232 248.65792H243.1744V464.6656c-20.9408-19.55328-45.60896-34.02752-74.02496-43.43808V473.2416c14.9504 4.88448 31.19104 14.1824 48.73728 27.83744 17.54112 13.66528 29.568 29.60384 36.09088 47.81568h46.4896v-300.2368z m319.86688 53.24288v-53.25312H419.456c2.19136 20.14208 8.71424 39.20896 19.58912 57.20576 10.86464 18.0736 32.34304 41.92768 64.4352 71.7312 25.84576 24.05888 41.6512 40.38144 47.52896 48.9472 7.87456 11.81696 11.82208 23.51616 11.82208 35.08224 0 12.75904-3.44064 22.59456-10.30144 29.46048-6.8864 6.85056-16.31744 10.2912-28.43648 10.2912-11.95008 0-21.48864-3.59936-28.55936-10.78784-7.07072-7.21408-11.15648-19.17952-12.2368-35.90656L426.1888 460.3648c3.40992 31.53408 14.08 54.18496 32.01024 67.90144 17.9456 13.7472 40.38144 20.60288 67.31264 20.60288 29.50144 0 52.66944-7.936 69.5552-23.8592 16.85504-15.90272 25.28256-35.6864 25.28256-59.3408a103.40352 103.40352 0 0 0-7.25504-38.43072c-4.84352-12.17024-12.4672-24.92928-22.94784-38.25664-6.92736-8.83712-19.43552-21.53984-37.51424-38.16448-18.05824-16.55296-29.51168-27.61728-34.34496-33.01888a98.74432 98.74432 0 0 1-11.72992-15.91808h113.78176v0.02048z m85.33504 26.09664l55.46496 6.72768c1.77664-14.14144 6.528-24.95488 14.24896-32.4096 7.77728-7.46496 17.152-11.20768 28.16-11.20768 11.83232 0 21.7856 4.50048 29.85984 13.42976 8.10496 8.99072 12.15488 21.0944 12.15488 36.31104 0 14.42304-3.88608 25.83552-11.6224 34.25792-7.75168 8.45824-17.2032 12.68224-28.34432 12.68224-7.35232 0-16.10752-1.41824-26.32192-4.28544l6.3232 46.69952c15.50336-0.40448 27.30496 2.96448 35.47648 10.09664 8.14592 7.13728 12.2368 16.60416 12.2368 28.45184 0 10.04544-2.99008 18.08896-8.93952 24.064-6.02112 5.98016-13.9776 8.96512-23.8848 8.96512-9.78432 0-18.16576-3.38432-25.09824-10.19392-6.90688-6.77888-11.11552-16.7168-12.63104-29.76256l-52.8128 8.96c3.67104 18.06336 9.22624 32.54272 16.62464 43.3664 7.424 10.78272 17.73568 19.28704 31.0016 25.46688 13.2608 6.18496 28.10368 9.27744 44.55424 9.27744 28.14464 0 50.688-8.97536 67.712-26.9312 13.9776-14.6688 20.99712-31.26272 20.99712-49.7408 0-26.24512-14.34624-47.1808-43.02848-62.81216 17.12128-3.67616 30.83264-11.91424 41.09824-24.69888 10.2656-12.77952 15.40096-28.20608 15.40096-46.27456 0-26.26048-9.59488-48.62464-28.75392-67.0976-19.16928-18.49856-43.02336-27.74528-71.58272-27.74528-27.0592 0-49.46944 7.79776-67.3024 23.33184-17.80736 15.57504-28.14464 35.94752-30.99136 61.07136z"  horiz-adv-x="1024" />

    
    <glyph glyph-name="yanzhengma3" unicode="&#58905;" d="M517.094527-128c-153.345274 0-438.129353 228.234826-438.129353 444.242786V728.39005c0 10.189055 8.151244 17.830846 18.849751 18.340298l24.963184 0.509453c1.018905 0 98.324378 2.037811 198.686568 41.775124C423.864677 829.771144 490.093532 876.640796 491.112438 877.150249l14.774129 10.189054c3.056716 2.037811 7.132338 3.566169 11.20796 3.56617 4.075622 0 8.151244-1.018905 11.207961-3.56617l14.774129-10.698507c0.509453-0.509453 67.247761-47.379104 170.157214-88.135323 100.362189-39.737313 197.667662-41.775124 198.686567-41.775125l24.453731-0.509452c10.189055 0 18.849751-8.151244 18.849752-18.340299v-412.147264c0-215.498507-284.78408-443.733333-438.129354-443.733333z m370.881592 808.501493c-37.699502 3.056716-117.174129 12.736318-199.196019 45.341293-84.569154 33.114428-146.212935 70.304478-171.685573 87.116418-25.472637-16.302488-87.116418-54.00199-171.685572-87.116418-82.021891-32.604975-160.987065-42.284577-199.19602-45.341293v-364.258707c0-169.138308 248.103483-376.485572 370.881592-376.485572 47.379104 0 140.099502 38.718408 230.78209 123.287562 87.625871 81.512438 140.099502 176.270647 140.099502 253.19801V680.501493z m-406.03383-433.544279c-6.113433-6.622886-14.774129-10.189055-23.944279-10.189055-9.170149 0-17.321393 3.566169-23.944279 10.189055l-101.381094 101.890547a33.827662 33.827662 0 0 0 0 47.888557c13.245771 13.245771 34.133333 13.245771 47.379104 0.509453l0.509453-0.509453 77.436816-77.946268 195.120398 196.648756c12.736318 13.245771 34.133333 13.245771 47.379104 0.509453l0.509453-0.509453c13.245771-13.245771 13.245771-34.642786 0-47.888557l-219.064676-220.593035z"  horiz-adv-x="1024" />

    
    <glyph glyph-name="yanzhengma4" unicode="&#59364;" d="M73.216-42.496c-22.528 0-40.96 18.432-40.96 40.96V752.64c0 22.528 18.432 40.96 40.96 40.96s40.96-18.432 40.96-40.96v-754.176c0-23.04-18.432-40.96-40.96-40.96zM552.448-50.688H226.816c-16.384 0-31.232 9.728-37.376 24.576-6.656 14.848-3.584 32.256 7.68 44.544 99.328 104.96 351.744 415.744 328.192 593.92-5.632 42.496-27.136 74.24-65.024 97.28-84.992 51.2-198.144-112.128-199.168-114.176-12.8-18.944-37.888-24.064-56.832-11.264-18.944 12.288-24.064 37.888-11.264 56.832 1.536 2.048 36.864 55.296 89.088 99.328 103.936 87.552 182.784 61.952 220.16 39.424 59.904-36.352 94.72-88.576 103.936-156.16 26.112-193.024-180.736-465.408-288.256-592.384H552.96c22.528 0 40.96-18.432 40.96-40.96s-18.432-40.96-41.472-40.96zM743.936-32.256c-37.376 0-66.048 4.096-72.704 5.12-22.528 3.584-37.888 24.576-34.304 46.592 3.584 22.528 24.576 37.888 46.592 34.304 37.888-5.632 147.456-11.264 198.144 30.72 17.92 14.848 26.624 33.792 27.648 59.904 2.048 53.248-11.776 94.72-41.984 125.952-60.928 62.464-170.496 64-173.056 64h-0.512c-22.016 0-39.936 17.408-40.96 39.424-1.024 22.016 16.384 40.96 38.4 42.496 9.216 0.512 224.256 17.92 217.6 206.848-1.536 36.864-15.872 51.712-27.136 59.392-51.2 35.84-165.376 11.776-201.216 0.512-21.504-6.656-44.544 5.12-51.2 26.624-6.656 21.504 5.12 44.544 26.624 51.2 17.92 5.632 179.712 54.272 272.896-11.776 26.624-18.944 59.392-55.808 61.952-123.392 4.096-109.056-44.032-193.536-139.264-245.248 26.112-12.8 52.224-29.696 74.752-52.736 46.08-47.616 68.096-110.08 65.024-185.856-2.048-49.152-22.016-90.624-57.344-119.808-53.76-45.056-132.608-54.272-189.952-54.272z"  horiz-adv-x="1024" />

    
    <glyph glyph-name="yanzhengma5" unicode="&#58940;" d="M512 792.5c1.3 0 2.5-0.2 3.7-0.7L849.6 664c3.8-1.4 6.4-4.8 6.5-8.2l-7.9-272.2v-1.2c0-23.1-3.3-47.5-9.8-72.6-6.4-24.6-15.7-49.4-27.6-73.5-23.7-47.8-56.7-90.6-92.9-120.4-17.7-14.6-134.5-93.2-205.7-140.5-77.5 52.2-190.2 129-202.7 139.6C230.9 184.7 182 287.2 182 382.5c0 0.7 0 1.4-0.1 2.1l-14 271.6c0.2 3.4 2.8 6.6 6.5 8L508.3 792c1.2 0.2 2.5 0.5 3.7 0.5m0 40c-6.1 0-12.2-1.1-18-3.3L160.1 701.3c-18.5-7.1-31.5-24.3-32.2-44.1v-1.9l14-273c0-108.3 54.9-221.2 141-297.5 16.7-14.8 209.2-144.4 209.2-144.4 6-4.1 13-6.1 19.9-6.1 6.9 0 13.8 2 19.8 6 0 0 185.2 123 211.3 144.5C825.4 152.6 888 273.9 888 382.2l8 273v1.9c-0.8 19.8-13.7 37-32.2 44.1L530 829.2c-5.8 2.2-11.9 3.3-18 3.3zM700 530.5H324c-10.2 0-18.5 8.3-18.5 18.5v3.8c0 10.2 8.3 18.5 18.5 18.5h376c10.2 0 18.5-8.3 18.5-18.5v-3.8c0-10.2-8.3-18.5-18.5-18.5zM536 532.8v-322.3c0-9.9-8.1-18.1-18.1-18.1h-8.8c-9.9 0-18.1 8.1-18.1 18.1V532.8c0 9.9 8.1 18.1 18.1 18.1h8.8c10-0.1 18.1-8.2 18.1-18.1z"  horiz-adv-x="1024" />

    
    <glyph glyph-name="yanzhengma6" unicode="&#59527;" d="M0 844.8v-921.6h1024V844.8z m307.2-614.4H204.8V537.6h102.4z m256 0H460.8V537.6h102.4z m256 0h-102.4V537.6h102.4z"  horiz-adv-x="1024" />

    
    <glyph glyph-name="yanzhengma7" unicode="&#59033;" d="M512.50176-91.8784c-41.21088 0-88.23296 15.60064-139.76064 46.36672-40.31488 24.06912-82.5088 57.23136-118.81984 93.37856-61.1072 62.33088-108.64128 138.32192-137.78944 220.07808l-2.19136 6.144V730.68544l41.61024-0.33792A415.29856 415.29856 0 0 1 293.7856 753.9712l0.88064 0.29696A733.568 733.568 0 0 1 490.78784 852.24448l20.9152 14.72 21.41696-13.98272a967.69536 967.69536 0 0 1 197.73952-98.87232c34.69312-11.20768 66.69824-18.67264 95.3088-22.24128 12.00128-1.49504 22.70208-2.2528 31.81056-2.2528h0.00512c3.33824 0 6.2976 0.10752 8.86784 0.29184l1.37216 0.11776 42.83392 6.15936v-462.07488l-2.176-6.13376c-29.10208-81.83296-76.6464-157.84448-137.50272-219.80672-36.61312-36.41856-78.79168-69.5552-119.05536-93.60384-51.57888-30.8224-98.62144-46.44352-139.82208-46.44352z m-2.00704 866.33472A809.66656 809.66656 0 0 0 318.44864 682.6496a492.09856 492.09856 0 0 0-124.32896-26.25024l-4.71552-0.37376v-368.768l0.32256-0.86528c25.95328-69.71904 65.5104-132.02944 117.57056-185.18528 70.76352-70.3744 153.21088-117.62688 205.20448-117.62688 51.93728 0 134.38976 47.25248 205.17888 117.59616 52.15232 53.15072 91.6992 115.44576 117.60128 185.20064l0.32256 0.86016V655.04768l-4.6592 0.41984a406.92224 406.92224 0 0 0-14.1056 1.52064c-33.52576 4.17792-70.45632 12.75904-109.7728 25.50272l-1.23904 0.42496a1043.47136 1043.47136 0 0 0-189.8496 91.61728l-2.75968 1.69984-2.72384-1.77664zM319.7696 355.3792a37.4784 37.4784 0 0 0-11.04896 26.68032c0 10.07616 3.92192 19.55328 11.04896 26.68032 7.12704 7.12704 16.59904 11.04896 26.68032 11.04896s19.55328-3.92704 26.68032-11.04896l97.96608-97.96608 196.43904 196.44416c7.13216 7.12704 16.60416 11.04896 26.68544 11.04896s19.55328-3.92192 26.68032-11.04896c14.70976-14.71488 14.70976-38.65088 0-53.36064l-249.8048-249.8048-151.32672 151.32672z"  horiz-adv-x="1024" />

    
    <glyph glyph-name="zhiding" unicode="&#58952;" d="M801.1 388.6c-9.7 0-19.5 3.7-26.9 11.1L557.4 616.6c-24.2 24.2-63.5 24.2-87.6 0L252.9 399.7c-14.8-14.8-38.9-14.8-53.7 0s-14.8 38.9 0 53.7L416 670.3c53.8 53.8 141.3 53.8 195.1 0L828 453.5c14.8-14.8 14.8-38.9 0-53.7-7.4-7.5-17.2-11.2-26.9-11.2zM513-127c-21 0-38 17-38 38V665c0 21 17 38 38 38s38-17 38-38v-754c0-21-17-38-38-38zM985 816H40C19 816 2 833 2 854S19 892 40 892h945c21 0 38-17 38-38s-17-38-38-38z"  horiz-adv-x="1024" />

    
    <glyph glyph-name="tuichu" unicode="&#58953;" d="M738.61148 57.427567c-9.696212 0-19.492386 3.698555-26.889496 11.095666-14.794221 14.794221-14.794221 38.884811 0 53.679032l216.415462 216.415462c24.390472 24.390472 24.390472 63.97501 0 88.365483L711.721984 643.398672c-14.794221 14.794221-14.794221 38.884811 0 53.679032s38.884811 14.794221 53.679031 0L981.816478 480.762202c53.978914-53.978914 53.978914-141.844592 0-195.823506L765.401015 68.523233c-7.397111-7.397111-17.093323-11.095666-26.789535-11.095666zM976.918391 344.315502h-753.705584c-20.9918 0-37.985162 16.993362-37.985162 37.985162s16.993362 37.985162 37.985162 37.985162h753.705584c20.9918 0 37.985162-16.993362 37.985162-37.985162s-17.093323-37.985162-37.985162-37.985162zM352.56228-128h-210.91761C65.374463-128 3.19875-65.924248 3.19875 10.345959V755.554861C3.19875 831.825068 65.374463 894.000781 141.64467 894.000781h210.91761c20.9918 0 37.985162-16.993362 37.985162-37.985162s-16.993362-37.985162-37.985162-37.985162h-210.91761C107.258102 818.030457 79.169075 790.04139 79.169075 755.554861V10.345959c0-34.386568 27.989067-62.475595 62.475595-62.475596h210.91761c20.9918 0 37.985162-16.993362 37.985162-37.985162s-16.993362-37.885201-37.985162-37.885201z"  horiz-adv-x="1024" />

    
    <glyph glyph-name="shangchuan" unicode="&#58954;" d="M800.2 570.6c-9.7 0-19.5 3.7-26.9 11.1L556.9 798.2c-11.8 11.8-27.5 18.3-44.2 18.3s-32.4-6.5-44.2-18.3L252 581.7c-14.8-14.8-38.9-14.8-53.7 0s-14.8 38.9 0 53.7L414.7 851.9c26.2 26.2 60.9 40.6 97.9 40.6 37 0 71.8-14.4 97.9-40.6L827 635.4c14.8-14.8 14.8-38.9 0-53.7-7.3-7.4-17.1-11.1-26.8-11.1zM512.1 55c-21 0-38 17-38 38V847c0 21 17 38 38 38s38-17 38-38v-754c0-21-17-38-38-38zM885.5-127H140.1C63.7-127 1.6-64.9 1.6 11.5v211c0 21 17 38 38 38s38-17 38-38v-211c0-34.4 28-62.5 62.5-62.5h745.5c34.4 0 62.5 28 62.5 62.5v211c0 21 17 38 38 38s38-17 38-38v-211c-0.1-76.4-62.2-138.5-138.6-138.5z"  horiz-adv-x="1024" />

    
    <glyph glyph-name="xiazai" unicode="&#58955;" d="M512.7 56.1c-35.5 0-70.9 13.5-97.9 40.5L198.2 313c-14.8 14.8-14.8 38.9 0 53.7s38.9 14.8 53.7 0l216.5-216.5c24.4-24.4 64-24.4 88.4 0l216.5 216.5c14.8 14.8 38.9 14.8 53.7 0s14.8-38.9 0-53.7L610.6 96.6c-27-27-62.5-40.5-97.9-40.5zM512.1 63.5c-21 0-38 17-38 38v754c0 21 17 38 38 38s38-17 38-38v-754c0-21-17-38-38-38zM885.5-128H140.1C63.7-128 1.6-65.9 1.6 10.5v211c0 21 17 38 38 38s38-17 38-38v-211c0-34.4 28-62.5 62.5-62.5h745.5c34.4 0 62.5 28 62.5 62.5v211c0 21 17 38 38 38s38-17 38-38v-211c-0.1-76.4-62.2-138.5-138.6-138.5z"  horiz-adv-x="1024" />

    
    <glyph glyph-name="shuaxin" unicode="&#58906;" d="M102.279529 325.692235l4.276706-1.385411 143.661177-61.379765c12.047059-5.12 17.588706-18.974118 12.40847-30.840471a23.853176 23.853176 0 0 0-26.74447-13.673412l-4.577883 1.445648-92.641882 39.514352c45.236706-159.804235 193.897412-274.130824 366.592-274.130823 185.705412 0 343.461647 132.156235 375.024941 310.633412a23.792941 23.792941 0 0 0 27.52753 19.094588 23.491765 23.491765 0 0 0 19.335529-27.105882c-35.538824-200.944941-212.931765-349.605647-421.888-349.605647-189.199059 0-352.737882 121.976471-408.214588 294.430117l-33.370353-92.220235a23.853176 23.853176 0 0 0-30.418824-14.21553 23.491765 23.491765 0 0 0-15.540706 25.359059l1.144471 4.638118 55.838118 154.383059a23.853176 23.853176 0 0 0 27.587764 15.058823zM493.387294 781.552941c189.259294 0 352.737882-121.976471 408.214588-294.430117l33.370353 92.220235a23.853176 23.853176 0 0 0 30.418824 14.215529 23.491765 23.491765 0 0 0 15.600941-25.359059l-1.204706-4.638117-55.838118-154.383059a23.853176 23.853176 0 0 0-27.587764-15.058824l-4.216471 1.385412-143.721412 61.379765a23.371294 23.371294 0 0 0-12.348235 30.84047 23.853176 23.853176 0 0 0 26.684235 13.673412l4.577883-1.445647 92.702117-39.514353c-45.296941 159.804235-193.957647 274.130824-366.652235 274.130824-185.705412 0-343.461647-132.156235-375.024941-310.633412a23.792941 23.792941 0 0 0-27.527529-19.094588 23.491765 23.491765 0 0 0-19.33553 27.105882C107.038118 632.952471 284.431059 781.552941 493.387294 781.552941z"  horiz-adv-x="1024" />

    
    <glyph glyph-name="anquan" unicode="&#58907;" d="M511.936 896c50.112-33.664 110.592-60.032 181.568-79.104 70.912-19.008 144.768-33.92 221.696-44.608v-603.968C843.392 37.248 592.384-128 512-128c-80.256 0-331.392 165.248-403.2 296.32l0.192 603.968c79.68 10.688 153.6 25.6 221.824 44.608C398.976 835.968 459.392 862.336 511.936 896z m0-58.24c-53.76-29.056-107.904-51.008-162.56-65.792-54.656-14.848-117.76-30.848-189.44-48.064v-540.288c94.464-131.2 313.024-257.472 352-257.472 21.632 0 98.176 32.128 178.24 87.936 64.576 45.056 131.456 110.72 173.76 169.536V723.84c-78.08 17.28-141.184 33.28-189.376 48-48.128 14.848-102.336 36.8-162.56 65.92z m155.2-319.168c10.56 8.832 28.16 8.832 40.512-1.792a25.6 25.6 0 0 0 0-37.12l-229.12-229.632a26.496 26.496 0 0 0-19.392-7.04 26.496 26.496 0 0 0-19.392 7.04L316.352 373.76a25.6 25.6 0 0 0 0 37.12 25.536 25.536 0 0 0 36.992 0l104-104.192z"  horiz-adv-x="1024" />

    
    <glyph glyph-name="duanxin" unicode="&#58908;" d="M995.568941 616.508235a125.590588 125.590588 0 0 1-125.590588 125.530353H157.394824A125.590588 125.590588 0 0 1 31.864471 616.508235v-483.749647c0-69.330824 56.259765-125.590588 125.650823-125.590588h712.523294a125.590588 125.590588 0 0 1 125.590588 125.590588v483.689412z m-123.542588 76.498824c13.010824 0 25.298824-3.734588 36.141176-9.216L534.287059 333.462588c-1.325176-1.204706-1.264941-0.963765-1.92753-1.987764-1.505882-1.144471-6.505412-4.216471-16.624941-4.216471-10.179765 0-15.179294 3.011765-16.685176 4.096-0.722824 1.204706-0.722824 0.783059-2.168471 2.108235L115.952941 679.634824c12.528941 8.071529 27.407059 13.372235 43.429647 13.372235h712.58353z m76.860235-559.585883c0-43.851294-34.213647-78.968471-78.185412-78.96847H159.623529c-43.971765 0-81.076706 35.117176-81.076705 78.96847V615.243294c0 11.384471 3.072 22.287059 7.469176 32.045177l378.398118-345.750589c5.240471-5.662118 20.961882-18.974118 50.597647-18.974117 29.936941 0 45.537882 13.552941 50.657882 19.154823l373.338353 353.039059a78.305882 78.305882 0 0 0 9.878588-39.514353v-481.822118z"  horiz-adv-x="1024" />

    
    <glyph glyph-name="dianzan" unicode="&#58909;" d="M831.608471 499.350588h-195.343059V698.789647c0 55.777882-45.056 100.833882-100.894118 100.833882-49.392941 0-92.280471-32.165647-100.833882-79.390117-25.780706-139.384471-107.339294-263.830588-206.125177-263.830588H121.072941c-47.224471 0-85.835294-40.719059-85.835294-87.94353v-362.496A86.136471 86.136471 0 0 1 121.072941-79.811765h592.474353c58.006588 0 109.507765 38.610824 124.506353 94.388706l96.617412 349.605647a106.194824 106.194824 0 0 1-103.002353 135.168zM228.412235 407.070118v-443.934118H121.072941a43.068235 43.068235 0 0 0-42.887529 42.827294V368.459294c0 23.612235 19.275294 45.056 42.887529 45.056h107.339294v-6.445176z m665.47953-29.997177l-96.617412-349.665882a86.979765 86.979765 0 0 0-83.727059-64.331294h-442.127059v454.77647c81.498353 23.552 171.670588 117.940706 206.004706 291.659294 4.336941 27.888941 27.949176 47.224471 57.946353 47.224471 32.225882 0 58.006588-25.780706 58.006588-57.946353V501.458824c0-23.552 21.443765-45.056 45.056-45.056h193.174589c19.335529 0 38.671059-8.553412 51.561411-25.720471 12.890353-15.058824 15.058824-34.334118 10.721883-53.609412z"  horiz-adv-x="1024" />

    
    <glyph glyph-name="biyan" unicode="&#58910;" d="M997.918118 584.222118a24.395294 24.395294 0 0 0 5.662117-34.213647 772.216471 772.216471 0 0 0-123.00047-135.228236l109.447529-108.544c9.517176-9.517176 9.637647-24.937412 0.120471-34.514823l-0.120471-0.120471c-9.637647-9.637647-25.298824-9.637647-34.93647 0L842.089412 383.698824a547.960471 547.960471 0 0 0-161.551059-79.75153l40.899765-141.552941a24.576 24.576 0 0 0-16.865883-30.418824 24.756706 24.756706 0 0 0-30.599529 16.926118l-41.441882 143.239529a551.514353 551.514353 0 0 0-106.194824-10.059294 551.514353 551.514353 0 0 0-106.315294 10.11953l-41.381647-143.299765a24.756706 24.756706 0 0 0-30.659765-16.865882 24.576 24.576 0 0 0-16.745412 30.358588l40.899765 141.552941a532.660706 532.660706 0 0 0-161.189647 80.233412l-0.421647-0.481882-113.001412-112.097883c-9.637647-9.637647-25.238588-9.637647-34.93647 0a24.455529 24.455529 0 0 0 0 34.635294L172.092235 414.72A772.216471 772.216471 0 0 0 49.091765 550.008471a24.395294 24.395294 0 0 0 5.601882 34.213647 24.816941 24.816941 0 0 0 34.454588-5.601883C209.197176 412.912941 354.364235 330.992941 526.336 330.992941c171.971765 0 317.078588 81.859765 437.127529 247.567059a24.816941 24.816941 0 0 0 34.454589 5.601882z"  horiz-adv-x="1024" />

    
    <glyph glyph-name="shouji" unicode="&#58911;" d="M770.879515 895.99936h-517.75903A73.599862 73.599862 0 0 1 179.200624 822.847497v-877.694354A73.599862 73.599862 0 0 1 253.184485-127.99872h517.759029a73.599862 73.599862 0 0 1 73.855862 73.151863V822.847497C844.799376 863.231421 811.711438 895.99936 770.879515 895.99936z m-12.543977-975.486171H265.664462a34.431935 34.431935 0 0 0-35.199934 33.599937v100.735811H793.599472v-100.671811c0-18.559965-15.74397-33.663937-35.199934-33.663937zM588.799856 6.913027a19.199964 19.199964 0 0 0 0-38.399928H435.200144a19.199964 19.199964 0 0 0 0 38.399928h153.599712zM758.399538 847.551451c19.391964 0 35.135934-15.99997 35.135934-35.711933v-714.430661H230.400528V811.839518c0 19.711963 15.74397 35.711933 35.199934 35.711933h492.671076z"  horiz-adv-x="1024" />

    
    <glyph glyph-name="shaixuan" unicode="&#58912;" d="M917.202824 841.788235c27.888941 0 53.428706-15.661176 65.837176-40.598588 12.348235-24.937412 9.517176-54.633412-7.408941-76.739765l-311.476706-406.889411c-9.758118-12.709647-15.058824-28.310588-15.058824-44.333177v-346.533647a48.670118 48.670118 0 0 0-30.177882-44.935529 49.091765 49.091765 0 0 0-53.308235 10.541176l-139.625412 138.962824a72.884706 72.884706 0 0 0-21.443765 51.621647v190.343529c0 16.022588-5.300706 31.623529-15.058823 44.333177l-311.416471 406.949647a72.764235 72.764235 0 0 0-7.408941 76.679529A73.426824 73.426824 0 0 0 136.372706 841.788235h780.830118z m0.843294-48.670117H135.589647a24.515765 24.515765 0 0 1-22.046118-13.552942 24.214588 24.214588 0 0 1 2.469647-25.539764L428.272941 347.075765c16.263529-21.202824 25.057882-47.104 25.057883-73.788236v-190.343529c0-6.505412 2.529882-12.649412 7.168-17.287529l139.926588-138.962824v346.593882c0 26.624 8.794353 52.585412 25.057882 73.788236l312.19953 406.949647a24.214588 24.214588 0 0 1 2.409411 25.6 24.515765 24.515765 0 0 1-22.046117 13.492706z"  horiz-adv-x="1024" />

    
    <glyph glyph-name="mima" unicode="&#58913;" d="M766.192941 523.745882h-18.913882V613.978353A241.724235 241.724235 0 0 1 503.567059 856.425412c-136.734118 0-243.712-106.496-243.712-242.447059V523.745882h-18.070588c-68.126118 0-123.301647-54.934588-123.301647-122.639058v-385.807059c0-67.704471 55.175529-122.639059 123.241411-122.639059h524.468706c68.065882 0 123.301647 54.934588 123.301647 122.639059V401.106824A122.940235 122.940235 0 0 1 766.192941 523.745882zM305.995294 614.339765c0 110.230588 86.738824 196.547765 197.571765 196.547764a195.885176 195.885176 0 0 0 197.571765-196.547764v-89.630118H305.995294V614.339765z m534.588235-596.811294c0-42.526118-34.695529-76.980706-77.522823-76.980706H244.856471c-42.767059 0-77.522824 34.454588-77.522824 76.980706V397.974588c0 42.526118 34.695529 76.980706 77.522824 76.980706h518.204235c42.827294 0 77.522824-34.454588 77.522823-76.980706v-380.446117zM503.567059 286.72c-13.372235 0-24.214588-9.999059-24.214588-22.287059v-118.181647c0-12.348235 10.842353-22.287059 24.214588-22.287059 13.372235 0 24.214588 9.938824 24.214588 22.287059v118.181647c0 12.288-10.842353 22.287059-24.214588 22.287059z"  horiz-adv-x="1024" />

    
    <glyph glyph-name="youhui" unicode="&#58914;" d="M598.136471-107.339294c-32.587294 0-63.247059 12.709647-86.136471 35.779765L67.463529 372.796235A121.735529 121.735529 0 0 0 32.165647 468.329412l19.696941 256c4.517647 58.428235 53.790118 107.640471 112.158118 112.158117l256 19.636706a121.675294 121.675294 0 0 0 95.472941-35.297882l444.476235-444.476235a122.036706 122.036706 0 0 0 0-172.272942l-275.696941-275.696941a121.072941 121.072941 0 0 0-86.13647-35.719529zM430.381176 805.526588c-1.927529 0-3.855059-0.060235-5.842823-0.240941l-252.988235-19.456c-35.358118-2.710588-66.319059-33.731765-69.089883-69.029647l-19.456-252.988235c-1.686588-21.925647 6.264471-43.369412 21.805177-58.849883l439.296-439.296c14.155294-14.215529 33.008941-21.985882 53.007059-21.985882h0.060235c19.877647 0 38.550588 7.649882 52.645647 21.564235l0.421647 0.421647 272.444235 272.444236a75.173647 75.173647 0 0 1 0 106.134588L483.388235 783.540706a74.932706 74.932706 0 0 1-53.007059 21.985882zM339.365647 430.019765c-69.752471 0-126.494118 56.741647-126.494118 126.494117 0 69.752471 56.741647 126.494118 126.494118 126.494118 69.752471 0 126.494118-56.741647 126.494118-126.494118 0-69.752471-56.741647-126.494118-126.494118-126.494117z m0 206.727529c-43.188706 0-78.305882-36.020706-78.305882-80.233412 0-44.272941 35.117176-80.233412 78.305882-80.233411 43.128471 0 78.305882 35.960471 78.305882 80.233411 0 44.212706-35.177412 80.233412-78.305882 80.233412z"  horiz-adv-x="1024" />

    
    <glyph glyph-name="tongzhi" unicode="&#58915;" d="M493.688471 803.659294L267.926588 611.087059H155.045647C95.292235 611.087059 42.164706 561.332706 42.164706 498.206118v-282.142118c0-63.066353 49.814588-112.880941 112.880941-112.880941h99.568941l239.073883-189.259294c56.380235-43.128471 109.507765-16.564706 109.507764 53.127529V750.531765c0 73.065412-56.440471 99.568941-109.507764 53.127529z m61.861647-32.707765v-812.995764c0-15.962353-5.842824-19.395765-17.468236-10.24L278.889412 146.251294a27.105882 27.105882 0 0 1-17.468236 6.866824H145.950118c-31.503059 0-59.512471 27.407059-59.512471 58.247529V502.543059c0 30.780235 28.009412 58.187294 59.512471 58.187294h129.505882a27.105882 27.105882 0 0 1 17.528471 6.866823L538.081882 773.12c16.022588 12.528941 17.347765 13.552941 17.468236-2.168471z m277.504-33.792c123.482353-118.964706 183.296-244.374588 177.513411-375.567058-5.782588-130.590118-65.716706-244.374588-178.657882-340.208942a24.094118 24.094118 0 0 0-31.141647 36.74353c103.002353 87.461647 156.491294 188.958118 161.611294 305.633882 5.180235 116.013176-48.489412 228.653176-162.755765 338.642824a24.094118 24.094118 0 1 0 33.430589 34.755764zM757.338353 564.705882c62.524235-65.234824 94.388706-135.288471 94.388706-209.498353 0-74.270118-31.984941-143.480471-94.689883-206.727529a24.094118 24.094118 0 1 0-34.213647 33.972706c54.211765 54.633412 80.715294 112.037647 80.715295 172.754823 0 60.958118-26.624 119.386353-81.016471 176.128a24.094118 24.094118 0 1 0 34.816 33.370353z"  horiz-adv-x="1084" />

    
    <glyph glyph-name="aixin" unicode="&#58916;" d="M529.769412-60.837647c-6.023529 0-11.806118 2.409412-16.022588 6.625882l-136.252236 136.553412c-1.807059 1.807059-177.091765 176.911059-202.270117 201.908706C101.074824 357.978353 57.524706 440.741647 49.272471 523.565176c-8.192 82.401882 20.48 160.828235 80.715294 220.762353 59.151059 58.729412 131.192471 83.365647 208.293647 71.198118 64.030118-10.059294 129.867294-45.176471 191.488-101.978353 61.620706 56.801882 127.457882 91.919059 191.427764 101.978353 77.161412 12.167529 149.202824-12.468706 208.293648-71.198118 60.295529-59.934118 88.967529-138.360471 80.775529-220.762353-8.252235-82.823529-51.802353-165.586824-126.012235-239.314823-54.814118-54.512941-335.631059-335.631059-338.522353-338.522353a22.588235 22.588235 0 0 0-15.962353-6.625882zM301.537882 768.180706c-50.416941 0-96.376471-20.239059-136.975058-60.355765-50.959059-50.296471-74.209882-113.242353-67.282824-182.151529 7.107765-71.378824 45.959529-143.721412 112.158118-209.136941 24.997647-24.696471 199.137882-197.571765 200.884706-199.318589l119.446588-118.90447c60.235294 59.934118 273.347765 271.841882 320.331294 318.223059 66.258824 65.415529 104.990118 137.758118 112.158118 209.136941 6.927059 68.909176-16.384 131.915294-67.282824 182.151529-48.790588 48.188235-105.411765 67.704471-168.056471 57.825883-59.693176-9.336471-122.398118-44.995765-181.308235-103.243295a22.528 22.528 0 0 0-31.683765 0c-58.910118 58.247529-121.615059 93.967059-181.308235 103.30353a200.824471 200.824471 0 0 1-31.081412 2.409412z"  horiz-adv-x="1024" />

    
    <glyph glyph-name="weizhi" unicode="&#58917;" d="M540.672 841.788235c205.944471 0 373.458824-166.731294 373.458824-371.712a368.459294 368.459294 0 0 0-66.740706-211.968c-25.660235-35.237647-118.181647-157.214118-277.504-365.869176a38.610824 38.610824 0 0 0-29.214118-14.21553 37.345882 37.345882 0 0 0-27.949176 12.709647c-144.504471 186.307765-237.628235 309.127529-279.491765 368.399059a367.435294 367.435294 0 0 0-66.017883 210.944C167.213176 675.056941 334.727529 841.788235 540.672 841.788235z m0-48.790588a325.692235 325.692235 0 0 1-325.270588-325.391059c0-66.680471 19.998118-130.710588 57.46447-184.681412 1.204706-2.168471 82.401882-109.628235 243.410824-322.499764a32.527059 32.527059 0 0 1 24.395294-11.14353 33.551059 33.551059 0 0 1 25.419294 12.468706c160.406588 212.208941 241.001412 318.945882 241.724235 320.271059 38.008471 54.693647 58.127059 118.844235 58.127059 185.524706a325.692235 325.692235 0 0 1-325.270588 325.451294z m0-190.524235c73.065412 0 132.517647-59.452235 132.517647-132.517647s-59.452235-132.517647-132.517647-132.517647-132.517647 59.452235-132.517647 132.517647 59.452235 132.517647 132.517647 132.517647z m0-48.188236a84.389647 84.389647 0 0 1 0-168.658823 84.389647 84.389647 0 0 1 0 168.658823z"  horiz-adv-x="1024" />

    
    <glyph glyph-name="xingxing" unicode="&#58918;" d="M248.350118-97.882353a22.407529 22.407529 0 0 0-22.106353 26.081882l52.224 303.585883L57.223529 446.644706a22.287059 22.287059 0 0 0 12.468706 38.068706l305.814589 44.333176 136.734117 276.118588a22.407529 22.407529 0 0 0 40.237177 0l136.734117-276.118588 305.874824-44.333176a22.407529 22.407529 0 0 0 12.40847-38.068706l-221.30447-214.979765 52.224-303.525647a22.467765 22.467765 0 0 0-32.527059-23.491765l-273.528471 143.299765-273.52847-143.36a22.467765 22.467765 0 0 0-10.420706-2.529882zM120.952471 445.801412l197.270588-192.210824a22.407529 22.407529 0 0 0 6.445176-19.877647L278.106353-37.647059l243.772235 128.120471a22.407529 22.407529 0 0 0 20.841412 0l243.772235-128.120471-46.561882 271.420235a22.407529 22.407529 0 0 0 6.445176 19.877648l197.270589 192.210823-272.564706 39.634824a22.407529 22.407529 0 0 0-16.865883 12.227764l-121.916235 246.964706-121.916235-246.964706a22.407529 22.407529 0 0 0-16.865883-12.227764l-272.564705-39.634824z"  horiz-adv-x="1024" />

    
    <glyph glyph-name="pinglun" unicode="&#58919;" d="M909.376 832.064c59.072-0.192 106.88-47.488 106.944-105.92v-523.2c-1.088-57.6-48.64-103.808-106.944-104.064h-214.4c-79.68-88.32-123.392-135.424-131.008-141.44-11.392-8.96-25.6-15.68-40.448-15.552-14.784 0.128-27.264 7.744-40.448 16.896-8.768 6.08-54.08 52.928-135.808 140.544h-209.28c-59.136 0-107.136 47.424-107.264 105.92v520.96A106.752 106.752 0 0 0 138.048 832z m-8.32-50.752H145.92a64 64 0 0 1-64-64v-505.152a64 64 0 0 1 56.576-63.552l7.424-0.448h0.128l219.52 0.32c89.856-105.856 142.528-158.72 157.952-158.72 17.472 0 68.672 52.736 153.6 158.336l224.128 0.32a64 64 0 0 1 63.872 64V717.312a64 64 0 0 1-64 64zM279.872 410.048a61.632 61.632 0 1 0 0.128 123.328 61.632 61.632 0 0 0-0.128-123.328z m243.584 0a61.632 61.632 0 1 0 0.128 123.328 61.632 61.632 0 0 0-0.128-123.328z m243.712-0.192a61.696 61.696 0 0 0-61.568 61.824c0 34.112 27.52 61.824 61.568 61.824s61.632-27.712 61.632-61.824c0-34.176-27.584-61.824-61.632-61.824z"  horiz-adv-x="1088" />

    
    <glyph glyph-name="shezhi" unicode="&#58920;" d="M623.555765 832.391529l-69.270589-88.666353a337.317647 337.317647 0 0 1-36.382117 2.108236c-13.191529 0-25.660235-0.963765-36.382118-2.108236l-69.270588 88.786824A43.369412 43.369412 0 0 1 356.894118 842.992941L197.511529 750.772706a43.550118 43.550118 0 0 1-19.154823-53.368471l41.984-104.628706c-14.456471-20.058353-26.684235-41.080471-36.442353-62.825411l-110.832941-15.902118a42.706824 42.706824 0 0 1-37.044706-42.646588v-184.922353c0-21.684706 15.902118-39.996235 36.623059-42.586353l111.254588-15.962353c9.517176-21.082353 21.504-41.803294 36.442353-62.704941l-42.044235-104.990118a42.767059 42.767059 0 0 1 18.793411-52.946823l159.62353-92.340706c18.432-10.842353 42.285176-6.445176 55.597176 10.480941l69.270588 88.666353c13.552941-1.385412 25.298824-2.108235 36.321883-2.108235 11.083294 0 22.829176 0.722824 36.382117 2.048l69.391059-88.786824c13.010824-16.444235 36.080941-20.961882 55.296-10.480941l159.382589 92.28047a43.550118 43.550118 0 0 1 19.154823 53.308236l-41.923765 104.688941c14.396235 19.998118 26.624 41.080471 36.382118 62.825412l110.832941 15.902117a42.706824 42.706824 0 0 1 36.984471 42.646589V471.341176a42.586353 42.586353 0 0 1-36.562824 42.586353l-111.254588 15.962353a370.206118 370.206118 0 0 1-36.442353 62.704942l42.104471 104.990117a42.887529 42.887529 0 0 1-18.853647 52.946824L678.550588 843.233882a43.369412 43.369412 0 0 1-54.994823-10.842353z m32.768-32.225882l158.418823-94.027294-45.296941-113.001412a19.877647 19.877647 0 0 1 2.529882-19.154823c18.251294-24.515765 32.045176-48.128 41.923765-72.342589a19.696941 19.696941 0 0 1 15.480471-12.047058l122.277647-19.998118-2.108236-184.139294-120.169411-17.28753a19.757176 19.757176 0 0 1-15.420236-12.047058 314.548706 314.548706 0 0 0-41.863529-72.222118 19.636706 19.636706 0 0 1-2.650353-19.395765l43.791059-116.254117-156.491294-90.473412c-1.566118-0.843294-3.312941-0.722824-4.035765 0.240941l-74.812235 95.774118a19.757176 19.757176 0 0 1-18.010353 7.408941c-16.504471-2.048-29.876706-3.011765-41.984-3.011765-12.047059 0-25.419294 0.963765-41.984 3.011765a19.696941 19.696941 0 0 1-17.950118-7.408941L379.482353-42.465882l-158.418824 94.027294 45.357177 113.001412a19.696941 19.696941 0 0 1-2.529882 19.215058 324.608 324.608 0 0 0-41.984 72.282353 19.757176 19.757176 0 0 1-15.420236 12.047059l-122.277647 19.998118 2.108235 184.259764 120.169412 17.167059a19.757176 19.757176 0 0 1 15.420236 12.047059c10.300235 25.238588 24.395294 49.513412 41.863529 72.282353a19.636706 19.636706 0 0 1 2.650353 19.275294l-43.851294 116.254118 156.491294 90.533647c1.566118 0.843294 3.312941 0.722824 4.035765-0.240941l74.812235-95.774118c4.216471-5.421176 11.083294-8.312471 17.950118-7.469176 12.047059 1.505882 26.383059 3.011765 41.984 3.011764 15.661176 0 29.997176-1.505882 41.984-3.011764a19.757176 19.757176 0 0 1 18.010352 7.469176l74.691765 95.653647c0.903529 1.024 2.650353 1.204706 3.734588 0.602353zM319.126588 378.277647c0-109.628235 89.148235-198.776471 198.776471-198.776471 109.628235 0 198.776471 89.148235 198.77647 198.776471 0 109.628235-89.148235 198.776471-198.77647 198.776471-109.628235 0-198.776471-89.148235-198.776471-198.776471z m349.364706 0c0-83.064471-67.463529-150.588235-150.588235-150.588235a150.768941 150.768941 0 0 0-150.588235 150.588235c0 83.064471 67.523765 150.588235 150.588235 150.588235 83.124706 0 150.588235-67.523765 150.588235-150.588235z"  horiz-adv-x="1024" />

    
    <glyph glyph-name="fenxiang" unicode="&#58921;" d="M425.321412 799.623529a23.130353 23.130353 0 1 0 0-46.260705H152.696471a28.250353 28.250353 0 0 1-28.190118-28.310589v-730.352941c0-15.600941 12.649412-28.250353 28.190118-28.250353h730.413176c15.600941 0 28.250353 12.649412 28.250353 28.310588v226.304a23.130353 23.130353 0 0 0 46.260706 0v-244.434823c0-31.141647-25.298824-56.440471-56.440471-56.440471H134.686118a56.440471 56.440471 0 0 0-56.500706 56.440471V743.122824c0 31.201882 25.298824 56.500706 56.500706 56.500705z m509.168941 0a22.467765 22.467765 0 0 0 3.493647-0.361411l1.144471-0.180706a31.141647 31.141647 0 0 0 1.264941-0.361412c0.301176 0 0.361412 0 0.843294-0.180706l1.385412-0.481882 0.722823-0.301177 1.385412-0.602353 0.662588-0.361411 1.987765-1.144471 1.807059-1.264941a22.829176 22.829176 0 0 0 4.577882-5.12l0.301177-0.542118 0.843294-1.445647 0.361411-0.662588 0.602353-1.385412 0.301177-0.722823a38.791529 38.791529 0 0 0 0.481882-1.385412l0.240941-0.843294a20.841412 20.841412 0 0 0 0.301177-1.264941l0.180706-1.144471 0.12047-1.084235a22.467765 22.467765 0 0 0 0.120471-2.288942v-231.424a23.130353 23.130353 0 1 0-46.260706 0V720.594824L302.863059 112.097882a23.130353 23.130353 0 1 0-32.768 32.768L878.652235 753.362824h-175.585882a23.130353 23.130353 0 0 0 0 46.260705z"  horiz-adv-x="1024" />

    
    <glyph glyph-name="fenxiangbeifen" unicode="&#58922;" d="M980.288 594.24a24.576 24.576 0 0 1-24.576-24.576v-573.696c0-16.576-13.44-30.016-29.952-30.016H149.696a30.016 30.016 0 0 0-30.016 30.08V771.968c0 16.576 13.44 30.016 30.016 30.016h611.712a24.576 24.576 0 0 1 0 49.152H130.496a60.032 60.032 0 0 1-59.968-60.032v-814.4c0-33.088 26.88-59.968 59.968-59.968h814.4c33.152 0 60.032 26.88 60.032 60.032V569.6a24.576 24.576 0 0 1-24.64 24.576zM997.76 843.968c-9.6 9.6-25.6 9.6-38.4 0l-326.4-323.2c-9.6-9.6-9.6-25.6 0-35.2 9.6-9.6 25.6-9.6 38.4 0l326.4 323.2c9.6 9.6 9.6 25.6 0 35.2zM496 448H217.6c-16 0-25.6-12.8-25.6-25.6s12.8-25.6 25.6-25.6h278.4c16 0 25.6 12.8 25.6 25.6 0 16-12.8 25.6-25.6 25.6zM192 243.2c0-12.8 12.8-25.6 25.6-25.6h460.8c16 0 25.6 12.8 25.6 25.6s-12.8 25.6-25.6 25.6H217.6c-12.8 0-25.6-12.8-25.6-25.6z"  horiz-adv-x="1088" />

    
    <glyph glyph-name="liaotian" unicode="&#58923;" d="M572.48 876.8c-282.368 0-512-201.216-512-448.576 0-146.88 82.304-284.544 220.288-368.32v-141.44c0-9.984 5.44-19.2 14.272-23.872a26.688 26.688 0 0 1 27.712 1.152l64.896 43.072a20.736 20.736 0 0 1 3.2 2.368l73.28 49.152a584.256 584.256 0 0 1 108.416-10.496c282.24 0.064 511.936 201.216 511.936 448.448 0 247.296-229.632 448.512-512 448.512zM109.248 429.056c0 218.432 207.808 396.16 463.232 396.16 255.424 0 463.232-177.728 463.232-396.16 0-218.368-207.872-396.096-463.232-396.096a542.912 542.912 0 0 0-109.952 11.648 26.752 26.752 0 0 1-20.736-3.968l-86.848-57.856a21.376 21.376 0 0 1-2.944-2.176l-19.84-13.056v106.88a27.52 27.52 0 0 1-13.952 23.872c-130.944 73.6-208.96 197.312-208.96 330.752z m292.352 28.8a61.44 61.44 0 1 0-122.88-0.064 61.44 61.44 0 0 0 122.88 0m232.32 0.192a61.44 61.44 0 1 0-122.88-0.32 61.44 61.44 0 0 0 122.88 0.32m232.32-0.064a61.44 61.44 0 1 0-122.88-0.192 61.44 61.44 0 0 0 122.88 0.192"  horiz-adv-x="1088" />

    
    <glyph glyph-name="kejian" unicode="&#58924;" d="M540.672-1.505882c-303.585882 0-471.521882 331.113412-478.448941 345.088a40.237176 40.237176 0 0 0 0 32.647529C69.150118 390.204235 239.314824 721.317647 540.672 721.317647c303.585882 0 471.521882-333.402353 478.448941-347.437176a40.237176 40.237176 0 0 0 0-32.64753c-6.927059-11.625412-174.802824-342.738824-478.448941-342.738823z m-430.441412 361.411764c38.671059-67.644235 193.475765-313.223529 430.441412-313.223529 237.025882 0 391.770353 245.579294 430.501647 313.223529-38.731294 67.644235-193.475765 313.223529-430.501647 313.22353-236.965647 0-391.770353-245.579294-430.441412-313.22353zM540.672 209.317647a150.287059 150.287059 0 0 0-150.588235 150.588235c0 83.425882 67.222588 150.588235 150.588235 150.588236 83.425882 0 150.588235-67.162353 150.588235-150.588236s-67.162353-150.588235-150.588235-150.588235z m0 246.844235c-52.224 0-96.256-43.971765-96.256-96.256 0-52.284235 43.971765-96.256 96.256-96.256 52.284235 0 96.256 43.971765 96.256 96.256 0 52.284235-43.971765 96.256-96.256 96.256z"  horiz-adv-x="1024" />

    


  </font>
</defs>
</svg>
